<mxfile host="app.diagrams.net" agent="Mozilla/5.0 (Windows NT 10.0; Win64; x64) AppleWebKit/537.36 (KHTML, like Gecko) Chrome/136.0.0.0 Safari/537.36" version="27.0.9">
  <diagram name="Page-1" id="58cdce13-f638-feb5-8d6f-7d28b1aa9fa0">
    <mxGraphModel grid="1" page="1" gridSize="10" guides="1" tooltips="1" connect="1" arrows="1" fold="1" pageScale="1" pageWidth="1100" pageHeight="850" background="none" math="0" shadow="0">
      <root>
        <mxCell id="0" />
        <mxCell id="1" parent="0" />
        <mxCell id="jCwtEKRIqpZGqPLr1w9s-43" style="edgeStyle=orthogonalEdgeStyle;rounded=0;orthogonalLoop=1;jettySize=auto;html=1;entryX=0;entryY=0.5;entryDx=0;entryDy=0;" edge="1" parent="1" source="jCwtEKRIqpZGqPLr1w9s-1" target="jCwtEKRIqpZGqPLr1w9s-3">
          <mxGeometry relative="1" as="geometry" />
        </mxCell>
        <mxCell id="jCwtEKRIqpZGqPLr1w9s-1" value="" style="ellipse;html=1;shape=startState;fillColor=#000000;strokeColor=#ff0000;rounded=1;shadow=0;comic=0;labelBackgroundColor=none;fontFamily=Verdana;fontSize=12;fontColor=#000000;align=center;direction=south;" vertex="1" parent="1">
          <mxGeometry x="130" y="50" width="30" height="30" as="geometry" />
        </mxCell>
        <mxCell id="jCwtEKRIqpZGqPLr1w9s-45" style="edgeStyle=orthogonalEdgeStyle;rounded=0;orthogonalLoop=1;jettySize=auto;html=1;entryX=0;entryY=0.5;entryDx=0;entryDy=0;" edge="1" parent="1" source="jCwtEKRIqpZGqPLr1w9s-3" target="jCwtEKRIqpZGqPLr1w9s-10">
          <mxGeometry relative="1" as="geometry" />
        </mxCell>
        <mxCell id="jCwtEKRIqpZGqPLr1w9s-3" value="&lt;table&gt;&lt;tbody&gt;&lt;tr&gt;&lt;td data-end=&quot;425&quot; data-start=&quot;384&quot; data-col-size=&quot;sm&quot;&gt;&lt;strong data-end=&quot;398&quot; data-start=&quot;386&quot;&gt;&lt;/strong&gt;&lt;/td&gt;&lt;/tr&gt;&lt;/tbody&gt;&lt;/table&gt;&lt;table&gt;&lt;tbody&gt;&lt;tr&gt;&lt;td data-end=&quot;468&quot; data-start=&quot;425&quot; data-col-size=&quot;sm&quot;&gt;&lt;span data-end=&quot;442&quot; data-start=&quot;427&quot;&gt;Initialized&lt;/span&gt;&lt;/td&gt;&lt;/tr&gt;&lt;/tbody&gt;&lt;/table&gt;" style="rounded=1;whiteSpace=wrap;html=1;arcSize=24;fillColor=#ffffc0;strokeColor=#ff0000;shadow=0;comic=0;labelBackgroundColor=none;fontFamily=Verdana;fontSize=12;fontColor=#000000;align=center;" vertex="1" parent="1">
          <mxGeometry x="290" y="35" width="120" height="60" as="geometry" />
        </mxCell>
        <mxCell id="jCwtEKRIqpZGqPLr1w9s-49" style="edgeStyle=orthogonalEdgeStyle;rounded=0;orthogonalLoop=1;jettySize=auto;html=1;entryX=0.5;entryY=0;entryDx=0;entryDy=0;" edge="1" parent="1" source="jCwtEKRIqpZGqPLr1w9s-4" target="jCwtEKRIqpZGqPLr1w9s-29">
          <mxGeometry relative="1" as="geometry" />
        </mxCell>
        <mxCell id="jCwtEKRIqpZGqPLr1w9s-4" value="&amp;nbsp;Existed" style="rounded=1;whiteSpace=wrap;html=1;arcSize=24;fillColor=#ffffc0;strokeColor=#ff0000;shadow=0;comic=0;labelBackgroundColor=none;fontFamily=Verdana;fontSize=12;fontColor=#000000;align=center;" vertex="1" parent="1">
          <mxGeometry x="290" y="160" width="120" height="60" as="geometry" />
        </mxCell>
        <mxCell id="jCwtEKRIqpZGqPLr1w9s-50" value="" style="edgeStyle=orthogonalEdgeStyle;rounded=0;orthogonalLoop=1;jettySize=auto;html=1;" edge="1" parent="1" source="jCwtEKRIqpZGqPLr1w9s-6" target="jCwtEKRIqpZGqPLr1w9s-30">
          <mxGeometry relative="1" as="geometry" />
        </mxCell>
        <mxCell id="jCwtEKRIqpZGqPLr1w9s-6" value="Not Existed" style="rounded=1;whiteSpace=wrap;html=1;arcSize=24;fillColor=#ffffc0;strokeColor=#ff0000;shadow=0;comic=0;labelBackgroundColor=none;fontFamily=Verdana;fontSize=12;fontColor=#000000;align=center;" vertex="1" parent="1">
          <mxGeometry x="530" y="160" width="120" height="60" as="geometry" />
        </mxCell>
        <mxCell id="jCwtEKRIqpZGqPLr1w9s-7" value="" style="ellipse;html=1;shape=endState;fillColor=#000000;strokeColor=#ff0000;" vertex="1" parent="1">
          <mxGeometry x="1015" y="170" width="30" height="30" as="geometry" />
        </mxCell>
        <mxCell id="jCwtEKRIqpZGqPLr1w9s-47" style="edgeStyle=orthogonalEdgeStyle;rounded=0;orthogonalLoop=1;jettySize=auto;html=1;" edge="1" parent="1" source="jCwtEKRIqpZGqPLr1w9s-10">
          <mxGeometry relative="1" as="geometry">
            <mxPoint x="620" y="160" as="targetPoint" />
            <Array as="points">
              <mxPoint x="620" y="160" />
            </Array>
          </mxGeometry>
        </mxCell>
        <mxCell id="jCwtEKRIqpZGqPLr1w9s-48" style="edgeStyle=orthogonalEdgeStyle;rounded=0;orthogonalLoop=1;jettySize=auto;html=1;" edge="1" parent="1" source="jCwtEKRIqpZGqPLr1w9s-10" target="jCwtEKRIqpZGqPLr1w9s-4">
          <mxGeometry relative="1" as="geometry">
            <Array as="points">
              <mxPoint x="590" y="120" />
              <mxPoint x="350" y="120" />
            </Array>
          </mxGeometry>
        </mxCell>
        <mxCell id="jCwtEKRIqpZGqPLr1w9s-10" value="Checking" style="rounded=1;whiteSpace=wrap;html=1;arcSize=24;fillColor=#ffffc0;strokeColor=#ff0000;shadow=0;comic=0;labelBackgroundColor=none;fontFamily=Verdana;fontSize=12;fontColor=#000000;align=center;" vertex="1" parent="1">
          <mxGeometry x="530" y="35" width="120" height="60" as="geometry" />
        </mxCell>
        <mxCell id="jCwtEKRIqpZGqPLr1w9s-60" style="edgeStyle=orthogonalEdgeStyle;rounded=0;orthogonalLoop=1;jettySize=auto;html=1;entryX=0;entryY=0.5;entryDx=0;entryDy=0;" edge="1" parent="1" source="jCwtEKRIqpZGqPLr1w9s-29" target="jCwtEKRIqpZGqPLr1w9s-31">
          <mxGeometry relative="1" as="geometry">
            <Array as="points">
              <mxPoint x="350" y="440" />
            </Array>
          </mxGeometry>
        </mxCell>
        <mxCell id="jCwtEKRIqpZGqPLr1w9s-29" value="Editing" style="rounded=1;whiteSpace=wrap;html=1;arcSize=24;fillColor=#ffffc0;strokeColor=#ff0000;shadow=0;comic=0;labelBackgroundColor=none;fontFamily=Verdana;fontSize=12;fontColor=#000000;align=center;" vertex="1" parent="1">
          <mxGeometry x="290" y="280" width="120" height="60" as="geometry" />
        </mxCell>
        <mxCell id="jCwtEKRIqpZGqPLr1w9s-51" value="" style="edgeStyle=orthogonalEdgeStyle;rounded=0;orthogonalLoop=1;jettySize=auto;html=1;" edge="1" parent="1" source="jCwtEKRIqpZGqPLr1w9s-30" target="jCwtEKRIqpZGqPLr1w9s-31">
          <mxGeometry relative="1" as="geometry" />
        </mxCell>
        <mxCell id="jCwtEKRIqpZGqPLr1w9s-30" value="Adding" style="rounded=1;whiteSpace=wrap;html=1;arcSize=24;fillColor=#ffffc0;strokeColor=#ff0000;shadow=0;comic=0;labelBackgroundColor=none;fontFamily=Verdana;fontSize=12;fontColor=#000000;align=center;" vertex="1" parent="1">
          <mxGeometry x="530" y="280" width="120" height="60" as="geometry" />
        </mxCell>
        <mxCell id="jCwtEKRIqpZGqPLr1w9s-52" style="edgeStyle=orthogonalEdgeStyle;rounded=0;orthogonalLoop=1;jettySize=auto;html=1;entryX=0.5;entryY=1;entryDx=0;entryDy=0;" edge="1" parent="1" source="jCwtEKRIqpZGqPLr1w9s-31" target="jCwtEKRIqpZGqPLr1w9s-36">
          <mxGeometry relative="1" as="geometry" />
        </mxCell>
        <mxCell id="jCwtEKRIqpZGqPLr1w9s-31" value=" Updated" style="rounded=1;whiteSpace=wrap;html=1;arcSize=24;fillColor=#ffffc0;strokeColor=#ff0000;shadow=0;comic=0;labelBackgroundColor=none;fontFamily=Verdana;fontSize=12;fontColor=#000000;align=center;" vertex="1" parent="1">
          <mxGeometry x="530" y="410" width="120" height="60" as="geometry" />
        </mxCell>
        <mxCell id="jCwtEKRIqpZGqPLr1w9s-53" value="" style="edgeStyle=orthogonalEdgeStyle;rounded=0;orthogonalLoop=1;jettySize=auto;html=1;" edge="1" parent="1" source="jCwtEKRIqpZGqPLr1w9s-36" target="jCwtEKRIqpZGqPLr1w9s-37">
          <mxGeometry relative="1" as="geometry" />
        </mxCell>
        <mxCell id="jCwtEKRIqpZGqPLr1w9s-57" value="" style="edgeStyle=orthogonalEdgeStyle;rounded=0;orthogonalLoop=1;jettySize=auto;html=1;" edge="1" parent="1" source="jCwtEKRIqpZGqPLr1w9s-36" target="jCwtEKRIqpZGqPLr1w9s-40">
          <mxGeometry relative="1" as="geometry" />
        </mxCell>
        <mxCell id="jCwtEKRIqpZGqPLr1w9s-36" value="Suggested Delivery Route" style="rounded=1;whiteSpace=wrap;html=1;arcSize=24;fillColor=#ffffc0;strokeColor=#ff0000;shadow=0;comic=0;labelBackgroundColor=none;fontFamily=Verdana;fontSize=12;fontColor=#000000;align=center;" vertex="1" parent="1">
          <mxGeometry x="750" y="260" width="120" height="60" as="geometry" />
        </mxCell>
        <mxCell id="jCwtEKRIqpZGqPLr1w9s-54" value="" style="edgeStyle=orthogonalEdgeStyle;rounded=0;orthogonalLoop=1;jettySize=auto;html=1;" edge="1" parent="1" source="jCwtEKRIqpZGqPLr1w9s-37" target="jCwtEKRIqpZGqPLr1w9s-41">
          <mxGeometry relative="1" as="geometry" />
        </mxCell>
        <mxCell id="jCwtEKRIqpZGqPLr1w9s-37" value="Waiting for Manual Routing" style="rounded=1;whiteSpace=wrap;html=1;arcSize=24;fillColor=#ffffc0;strokeColor=#ff0000;shadow=0;comic=0;labelBackgroundColor=none;fontFamily=Verdana;fontSize=12;fontColor=#000000;align=center;" vertex="1" parent="1">
          <mxGeometry x="750" y="160" width="120" height="60" as="geometry" />
        </mxCell>
        <mxCell id="jCwtEKRIqpZGqPLr1w9s-56" value="" style="edgeStyle=orthogonalEdgeStyle;rounded=0;orthogonalLoop=1;jettySize=auto;html=1;" edge="1" parent="1" source="jCwtEKRIqpZGqPLr1w9s-39" target="jCwtEKRIqpZGqPLr1w9s-7">
          <mxGeometry relative="1" as="geometry" />
        </mxCell>
        <mxCell id="jCwtEKRIqpZGqPLr1w9s-39" value="Distribution Completed" style="rounded=1;whiteSpace=wrap;html=1;arcSize=24;fillColor=#ffffc0;strokeColor=#ff0000;shadow=0;comic=0;labelBackgroundColor=none;fontFamily=Verdana;fontSize=12;fontColor=#000000;align=center;" vertex="1" parent="1">
          <mxGeometry x="970" y="50" width="120" height="60" as="geometry" />
        </mxCell>
        <mxCell id="jCwtEKRIqpZGqPLr1w9s-58" value="" style="edgeStyle=orthogonalEdgeStyle;rounded=0;orthogonalLoop=1;jettySize=auto;html=1;" edge="1" parent="1" source="jCwtEKRIqpZGqPLr1w9s-40" target="jCwtEKRIqpZGqPLr1w9s-7">
          <mxGeometry relative="1" as="geometry" />
        </mxCell>
        <mxCell id="jCwtEKRIqpZGqPLr1w9s-40" value="Distribution Failed" style="rounded=1;whiteSpace=wrap;html=1;arcSize=24;fillColor=#ffffc0;strokeColor=#ff0000;shadow=0;comic=0;labelBackgroundColor=none;fontFamily=Verdana;fontSize=12;fontColor=#000000;align=center;" vertex="1" parent="1">
          <mxGeometry x="970" y="260" width="120" height="60" as="geometry" />
        </mxCell>
        <mxCell id="jCwtEKRIqpZGqPLr1w9s-55" value="" style="edgeStyle=orthogonalEdgeStyle;rounded=0;orthogonalLoop=1;jettySize=auto;html=1;" edge="1" parent="1" source="jCwtEKRIqpZGqPLr1w9s-41" target="jCwtEKRIqpZGqPLr1w9s-39">
          <mxGeometry relative="1" as="geometry" />
        </mxCell>
        <mxCell id="jCwtEKRIqpZGqPLr1w9s-41" value="Assigned to Delivery Route" style="rounded=1;whiteSpace=wrap;html=1;arcSize=24;fillColor=#ffffc0;strokeColor=#ff0000;shadow=0;comic=0;labelBackgroundColor=none;fontFamily=Verdana;fontSize=12;fontColor=#000000;align=center;" vertex="1" parent="1">
          <mxGeometry x="745" y="50" width="130" height="60" as="geometry" />
        </mxCell>
        <mxCell id="jCwtEKRIqpZGqPLr1w9s-44" value="Gửi đơn hàng đến" style="text;html=1;align=center;verticalAlign=middle;resizable=0;points=[];autosize=1;strokeColor=none;fillColor=none;" vertex="1" parent="1">
          <mxGeometry x="150" y="28" width="120" height="30" as="geometry" />
        </mxCell>
        <mxCell id="jCwtEKRIqpZGqPLr1w9s-46" value="quét mã barcode" style="text;html=1;align=center;verticalAlign=middle;resizable=0;points=[];autosize=1;strokeColor=none;fillColor=none;" vertex="1" parent="1">
          <mxGeometry x="405" y="38" width="110" height="30" as="geometry" />
        </mxCell>
        <mxCell id="jCwtEKRIqpZGqPLr1w9s-61" value="đơn hàng có trong hệ thống" style="text;html=1;align=center;verticalAlign=middle;resizable=0;points=[];autosize=1;strokeColor=none;fillColor=none;" vertex="1" parent="1">
          <mxGeometry x="365" y="98" width="170" height="30" as="geometry" />
        </mxCell>
        <mxCell id="jCwtEKRIqpZGqPLr1w9s-62" value="đơn hàng chưa có trong hệ thống" style="text;html=1;align=center;verticalAlign=middle;resizable=0;points=[];autosize=1;strokeColor=none;fillColor=none;" vertex="1" parent="1">
          <mxGeometry x="535" y="120" width="200" height="30" as="geometry" />
        </mxCell>
        <mxCell id="jCwtEKRIqpZGqPLr1w9s-63" value="Nhấn &quot;Lưu thay đổi&quot;" style="text;html=1;align=center;verticalAlign=middle;resizable=0;points=[];autosize=1;strokeColor=none;fillColor=none;" vertex="1" parent="1">
          <mxGeometry x="365" y="410" width="130" height="30" as="geometry" />
        </mxCell>
        <mxCell id="jCwtEKRIqpZGqPLr1w9s-64" value="Nhấn &quot;Thêm thành công&quot;" style="text;html=1;align=center;verticalAlign=middle;resizable=0;points=[];autosize=1;strokeColor=none;fillColor=none;" vertex="1" parent="1">
          <mxGeometry x="440" y="350" width="160" height="30" as="geometry" />
        </mxCell>
        <mxCell id="jCwtEKRIqpZGqPLr1w9s-65" value="Chọn &quot;Sửa thông tin trạng thái:" style="text;html=1;align=center;verticalAlign=middle;resizable=0;points=[];autosize=1;strokeColor=none;fillColor=none;" vertex="1" parent="1">
          <mxGeometry x="275" y="228" width="190" height="30" as="geometry" />
        </mxCell>
        <mxCell id="jCwtEKRIqpZGqPLr1w9s-66" value="Chọn thêm đơn hàng" style="text;html=1;align=center;verticalAlign=middle;resizable=0;points=[];autosize=1;strokeColor=none;fillColor=none;" vertex="1" parent="1">
          <mxGeometry x="510" y="228" width="140" height="30" as="geometry" />
        </mxCell>
        <mxCell id="jCwtEKRIqpZGqPLr1w9s-67" value="Chọn &quot;Gợi ý tuyến đường&quot;" style="text;html=1;align=center;verticalAlign=middle;resizable=0;points=[];autosize=1;strokeColor=none;fillColor=none;" vertex="1" parent="1">
          <mxGeometry x="650" y="410" width="170" height="30" as="geometry" />
        </mxCell>
        <mxCell id="jCwtEKRIqpZGqPLr1w9s-68" value="Không có tuyến phù hợp" style="text;html=1;align=center;verticalAlign=middle;resizable=0;points=[];autosize=1;strokeColor=none;fillColor=none;" vertex="1" parent="1">
          <mxGeometry x="840" y="320" width="150" height="30" as="geometry" />
        </mxCell>
        <mxCell id="jCwtEKRIqpZGqPLr1w9s-70" value="Có tuyến phù hợp" style="text;html=1;align=center;verticalAlign=middle;resizable=0;points=[];autosize=1;strokeColor=none;fillColor=none;" vertex="1" parent="1">
          <mxGeometry x="760" y="228" width="120" height="30" as="geometry" />
        </mxCell>
        <mxCell id="jCwtEKRIqpZGqPLr1w9s-71" value="Gán vào tuyến giao" style="text;html=1;align=center;verticalAlign=middle;resizable=0;points=[];autosize=1;strokeColor=none;fillColor=none;" vertex="1" parent="1">
          <mxGeometry x="765" y="118" width="130" height="30" as="geometry" />
        </mxCell>
        <mxCell id="jCwtEKRIqpZGqPLr1w9s-72" value="Nhấn &quot;Hoàn tất phân tuyến&quot;" style="text;html=1;align=center;verticalAlign=middle;resizable=0;points=[];autosize=1;strokeColor=none;fillColor=none;" vertex="1" parent="1">
          <mxGeometry x="845" y="20" width="170" height="30" as="geometry" />
        </mxCell>
        <mxCell id="jCwtEKRIqpZGqPLr1w9s-73" value="Rời trang phân tuyến" style="text;html=1;align=center;verticalAlign=middle;resizable=0;points=[];autosize=1;strokeColor=none;fillColor=none;" vertex="1" parent="1">
          <mxGeometry x="1030" y="120" width="140" height="30" as="geometry" />
        </mxCell>
        <mxCell id="jCwtEKRIqpZGqPLr1w9s-74" value="Rời trang phân tuyến" style="text;html=1;align=center;verticalAlign=middle;resizable=0;points=[];autosize=1;strokeColor=none;fillColor=none;" vertex="1" parent="1">
          <mxGeometry x="1030" y="210" width="140" height="30" as="geometry" />
        </mxCell>
      </root>
    </mxGraphModel>
  </diagram>
</mxfile>
